<svg viewBox="0 0 16 16" width="16px" height="16px"><path fill="#828282" d="m 14.22526,0.99999918 -12.450521,0 c -0.4283854,0 -0.77473959,0.34635422 -0.77473959,0.77473962 l 0,12.4505212 C 0.99999941,14.653646 1.3463536,15 1.774739,15 l 6.699219,0 0,-5.4231776 -1.8229167,0 0,-2.1145834 1.8229167,0 0,-1.5585938 c 0,-1.8046876 1.1119792,-2.7890626 2.725261,-2.7890626 0.765625,0 1.430989,0.054687 1.622395,0.082031 l 0,1.8867188 -1.111979,0.00911 c -0.884114,0 -1.048177,0.4101562 -1.048177,1.0208333 l 0,1.3489584 2.08724,0 -0.273438,2.1145834 -1.813802,0 0,5.4231776 3.563802,0 C 14.653646,15 15,14.653646 15,14.22526 L 15,1.7747388 C 15,1.3463534 14.653646,0.99999918 14.22526,0.99999918 Z"/></svg>
