<?xml version="1.0" encoding="UTF-8" standalone="no"?>
<svg
   xmlns:dc="http://purl.org/dc/elements/1.1/"
   xmlns:cc="http://creativecommons.org/ns#"
   xmlns:rdf="http://www.w3.org/1999/02/22-rdf-syntax-ns#"
   xmlns:svg="http://www.w3.org/2000/svg"
   xmlns="http://www.w3.org/2000/svg"
   xmlns:sodipodi="http://sodipodi.sourceforge.net/DTD/sodipodi-0.dtd"
   xmlns:inkscape="http://www.inkscape.org/namespaces/inkscape"
   viewBox="0 0 16 16"
   width="16px"
   height="16px"
   id="svg2"
   version="1.1"
   inkscape:version="0.91 r13725"
   sodipodi:docname="icon-instagram.svg">
  <metadata
     id="metadata10">
    <rdf:RDF>
      <cc:Work
         rdf:about="">
        <dc:format>image/svg+xml</dc:format>
        <dc:type
           rdf:resource="http://purl.org/dc/dcmitype/StillImage" />
      </cc:Work>
    </rdf:RDF>
  </metadata>
  <defs
     id="defs8" />
  <sodipodi:namedview
     pagecolor="#ffffff"
     bordercolor="#666666"
     borderopacity="1"
     objecttolerance="10"
     gridtolerance="10"
     guidetolerance="10"
     inkscape:pageopacity="0"
     inkscape:pageshadow="2"
     inkscape:window-width="1366"
     inkscape:window-height="707"
     id="namedview6"
     showgrid="false"
     inkscape:zoom="10.478008"
     inkscape:cx="-8.9037626"
     inkscape:cy="0.52093612"
     inkscape:window-x="0"
     inkscape:window-y="0"
     inkscape:window-maximized="1"
     inkscape:current-layer="svg2"
     showguides="true"
     inkscape:guide-bbox="true" />
  <g
     style="font-style:normal;font-weight:normal;font-size:16.33200455px;line-height:100%;font-family:Sans;text-align:center;letter-spacing:0px;word-spacing:0px;text-anchor:middle;fill:#000000;fill-opacity:1;stroke:none;stroke-width:1px;stroke-linecap:butt;stroke-linejoin:miter;stroke-opacity:1"
     id="text4134">
    <path
       d="m 10.333144,8.0000003 c 0,1.2850517 -1.0480915,2.3331437 -2.3331432,2.3331437 -1.2850517,0 -2.3331435,-1.048092 -2.3331435,-2.3331437 0,-1.2850517 1.0480918,-2.3331435 2.3331435,-2.3331435 1.2850517,0 2.3331432,1.0480918 2.3331432,2.3331435 z m 1.25771,0 c 0,-1.9868175 -1.6040357,-3.5908537 -3.5908532,-3.5908537 -1.9868175,0 -3.5908537,1.6040362 -3.5908537,3.5908537 0,1.9868175 1.6040362,3.5908537 3.5908537,3.5908537 1.9868175,0 3.5908532,-1.6040362 3.5908532,-3.5908537 z m 0.984295,-3.7366752 c 0,-0.4648059 -0.373667,-0.8384734 -0.838473,-0.8384734 -0.464806,0 -0.838473,0.3736675 -0.838473,0.8384734 0,0.464806 0.373667,0.8384735 0.838473,0.8384735 0.464806,0 0.838473,-0.3736675 0.838473,-0.8384735 z M 8.0000008,2.2582799 c 1.0207503,0 3.2080722,-0.082025 4.1285702,0.2825291 0.318985,0.1275938 0.555945,0.2825291 0.802018,0.5286028 0.246074,0.2460738 0.401009,0.4830337 0.528603,0.8020181 0.364554,0.9204981 0.282529,3.1078201 0.282529,4.1285704 0,1.0207503 0.08202,3.2080727 -0.282529,4.1285707 -0.127594,0.318984 -0.282529,0.555944 -0.528603,0.802018 -0.246073,0.246073 -0.483033,0.401009 -0.802018,0.528603 -0.920498,0.364553 -3.1078199,0.282529 -4.1285702,0.282529 -1.0207503,0 -3.2080723,0.08202 -4.1285703,-0.282529 C 3.552446,13.331598 3.3154861,13.176662 3.0694124,12.930589 2.8233387,12.684515 2.6684034,12.447555 2.5408096,12.128571 2.1762559,11.208073 2.2582805,9.0207506 2.2582805,8.0000003 2.2582805,6.97925 2.1762559,4.791928 2.5408096,3.8714299 2.6684034,3.5524455 2.8233387,3.3154856 3.0694124,3.0694118 3.3154861,2.8233381 3.552446,2.6684028 3.8714305,2.540809 4.7919285,2.1762553 6.9792505,2.2582799 8.0000008,2.2582799 Z m 6.9994302,5.7417204 c 0,-0.9660673 0.0091,-1.9230207 -0.04557,-2.8890879 C 14.899179,3.9899099 14.643992,2.9965011 13.823746,2.1762553 13.0035,1.3560096 12.010091,1.100822 10.889089,1.046139 9.9230214,0.99145591 8.9660681,1.0005698 8.0000008,1.0005698 c -0.9660672,0 -1.9230206,-0.009114 -2.8890878,0.045569 C 3.9899104,1.100822 2.9965017,1.3560096 2.1762559,2.1762553 1.3560101,2.9965011 1.1008226,3.9899099 1.0461395,5.1109124 c -0.054683,0.9660672 -0.045569,1.9230206 -0.045569,2.8890879 0,0.9660672 -0.009114,1.9230206 0.045569,2.8890877 0.054683,1.121003 0.3098706,2.114411 1.1301164,2.934657 0.8202458,0.820246 1.8136545,1.075434 2.9346571,1.130117 0.9660672,0.05468 1.9230206,0.04557 2.8890878,0.04557 0.9660673,0 1.9230206,0.0091 2.8890882,-0.04557 1.121002,-0.05468 2.114411,-0.309871 2.934657,-1.130117 0.820246,-0.820246 1.075433,-1.813654 1.130116,-2.934657 0.05468,-0.9660671 0.04557,-1.9230205 0.04557,-2.8890877 z"
       style="fill:#828282;fill-opacity:1"
       id="path4139" />
  </g>
</svg>
