<?xml version="1.0" encoding="UTF-8" standalone="no"?>
<svg
   xmlns:dc="http://purl.org/dc/elements/1.1/"
   xmlns:cc="http://creativecommons.org/ns#"
   xmlns:rdf="http://www.w3.org/1999/02/22-rdf-syntax-ns#"
   xmlns:svg="http://www.w3.org/2000/svg"
   xmlns="http://www.w3.org/2000/svg"
   xmlns:sodipodi="http://sodipodi.sourceforge.net/DTD/sodipodi-0.dtd"
   xmlns:inkscape="http://www.inkscape.org/namespaces/inkscape"
   viewBox="0 0 16 16"
   width="16px"
   height="16px"
   id="svg2"
   version="1.1"
   inkscape:version="0.91 r13725"
   sodipodi:docname="icon-instagram.svg">
  <metadata
     id="metadata10">
    <rdf:RDF>
      <cc:Work
         rdf:about="">
        <dc:format>image/svg+xml</dc:format>
        <dc:type
           rdf:resource="http://purl.org/dc/dcmitype/StillImage" />
      </cc:Work>
    </rdf:RDF>
  </metadata>
  <defs
     id="defs8" />
  <sodipodi:namedview
     pagecolor="#ffffff"
     bordercolor="#666666"
     borderopacity="1"
     objecttolerance="10"
     gridtolerance="10"
     guidetolerance="10"
     inkscape:pageopacity="0"
     inkscape:pageshadow="2"
     inkscape:window-width="1366"
     inkscape:window-height="707"
     id="namedview6"
     showgrid="false"
     inkscape:zoom="10.478008"
     inkscape:cx="7.7501663"
     inkscape:cy="0.52093612"
     inkscape:window-x="0"
     inkscape:window-y="0"
     inkscape:window-maximized="1"
     inkscape:current-layer="svg2"
     showguides="true"
     inkscape:guide-bbox="true" />
  <g
     style="font-style:normal;font-weight:normal;font-size:16.33333397px;line-height:100%;font-family:Sans;text-align:center;letter-spacing:0px;word-spacing:0px;text-anchor:middle;fill:#000000;fill-opacity:1;stroke:none;stroke-width:1px;stroke-linecap:butt;stroke-linejoin:miter;stroke-opacity:1"
     id="text3333">
    <path
       d="m 13.41406,12.830732 c 0,0.309896 -0.246094,0.555989 -0.55599,0.555989 l -9.74349,0 c -0.3098959,0 -0.5559896,-0.246093 -0.5559896,-0.555989 l 0,-5.9062506 1.2851563,0 C 3.7252571,7.2981794 3.661455,7.7083356 3.661455,8.1184919 c 0,2.3333331 1.9505209,4.2200521 4.3476564,4.2200521 2.4062496,0 4.3567706,-1.886719 4.3567706,-4.2200521 0,-0.4101563 -0.0638,-0.8203125 -0.182291,-1.1940105 l 1.230469,0 0,5.9062506 z M 10.825518,7.9726586 c 0,1.5039063 -1.2578128,2.7252604 -2.8164066,2.7252604 -1.5494792,0 -2.8072918,-1.2213541 -2.8072918,-2.7252604 0,-1.5039063 1.2578126,-2.7252606 2.8072918,-2.7252606 1.5585938,0 2.8164066,1.2213543 2.8164066,2.7252606 z M 13.41406,4.6914084 c 0,0.3463542 -0.282553,0.6289063 -0.628907,0.6289063 l -1.585937,0 c -0.346354,0 -0.628907,-0.2825521 -0.628907,-0.6289063 l 0,-1.5039063 c 0,-0.3463542 0.282553,-0.6289062 0.628907,-0.6289062 l 1.585937,0 c 0.346354,0 0.628907,0.282552 0.628907,0.6289062 l 0,1.5039063 z M 14.999997,2.795575 c 0,-0.984375 -0.811198,-1.795573 -1.795573,-1.795573 l -10.4088545,0 c -0.984375,0 -1.79557295,0.811198 -1.79557295,1.795573 l 0,10.408855 c 0,0.984375 0.81119795,1.795573 1.79557295,1.795573 l 10.4088545,0 c 0.984375,0 1.795573,-0.811198 1.795573,-1.795573 l 0,-10.408855 z"
       style="fill:#828282;fill-opacity:1"
       id="path4142" />
  </g>
</svg>
