<?xml version="1.0" encoding="UTF-8" standalone="no"?>
<svg
   xmlns:dc="http://purl.org/dc/elements/1.1/"
   xmlns:cc="http://creativecommons.org/ns#"
   xmlns:rdf="http://www.w3.org/1999/02/22-rdf-syntax-ns#"
   xmlns:svg="http://www.w3.org/2000/svg"
   xmlns="http://www.w3.org/2000/svg"
   xmlns:sodipodi="http://sodipodi.sourceforge.net/DTD/sodipodi-0.dtd"
   xmlns:inkscape="http://www.inkscape.org/namespaces/inkscape"
   viewBox="0 0 16 16"
   width="16px"
   height="16px"
   id="svg2"
   version="1.1"
   inkscape:version="0.91 r13725"
   sodipodi:docname="icon-facebook.svg">
  <metadata
     id="metadata10">
    <rdf:RDF>
      <cc:Work
         rdf:about="">
        <dc:format>image/svg+xml</dc:format>
        <dc:type
           rdf:resource="http://purl.org/dc/dcmitype/StillImage" />
      </cc:Work>
    </rdf:RDF>
  </metadata>
  <defs
     id="defs8" />
  <sodipodi:namedview
     pagecolor="#ffffff"
     bordercolor="#666666"
     borderopacity="1"
     objecttolerance="10"
     gridtolerance="10"
     guidetolerance="10"
     inkscape:pageopacity="0"
     inkscape:pageshadow="2"
     inkscape:window-width="1366"
     inkscape:window-height="707"
     id="namedview6"
     showgrid="false"
     inkscape:zoom="20.85965"
     inkscape:cx="3.8431597"
     inkscape:cy="7.5746094"
     inkscape:window-x="0"
     inkscape:window-y="0"
     inkscape:window-maximized="1"
     inkscape:current-layer="svg2" />
  <path
     d="m 1.7727264,1.0000048 c -0.4268253,0 -0.7727305,0.3458963 -0.7727305,0.7727042 l 0,12.454574 c 0,0.426703 0.3458527,0.772722 0.7727305,0.772722 l 6.7050938,0 0,-5.4215738 -1.8243847,0 0,-2.1128552 1.8243847,0 0,-1.5581747 c 0,-1.808241 1.1044169,-2.7929578 2.7175418,-2.7929578 0.772695,0 1.436838,0.057575 1.630336,0.0833 l 0,1.8897299 -1.118828,5.337e-4 c -0.877215,0 -1.047105,0.4169028 -1.047105,1.0286331 l 0,1.3489445 2.092302,0 -0.272467,2.1128552 -1.819835,0 0,5.4215651 3.567622,0 c 0.426651,0 0.772617,-0.345958 0.772617,-0.772713 l 0,-12.4545744 c 0,-0.4268077 -0.345914,-0.7727129 -0.772617,-0.7727129 l -12.4546606,0 z"
     id="Blue_1_"
     style="fill:#828282;fill-opacity:1"
     inkscape:connector-curvature="0" />
</svg>
