<?xml version="1.0" encoding="UTF-8" standalone="no"?>
<svg
   xmlns:dc="http://purl.org/dc/elements/1.1/"
   xmlns:cc="http://creativecommons.org/ns#"
   xmlns:rdf="http://www.w3.org/1999/02/22-rdf-syntax-ns#"
   xmlns:svg="http://www.w3.org/2000/svg"
   xmlns="http://www.w3.org/2000/svg"
   xmlns:sodipodi="http://sodipodi.sourceforge.net/DTD/sodipodi-0.dtd"
   xmlns:inkscape="http://www.inkscape.org/namespaces/inkscape"
   viewBox="0 0 16 16"
   width="16px"
   height="16px"
   id="svg2"
   version="1.1"
   inkscape:version="0.91 r13725"
   sodipodi:docname="icon-facebook.svg">
  <metadata
     id="metadata10">
    <rdf:RDF>
      <cc:Work
         rdf:about="">
        <dc:format>image/svg+xml</dc:format>
        <dc:type
           rdf:resource="http://purl.org/dc/dcmitype/StillImage" />
      </cc:Work>
    </rdf:RDF>
  </metadata>
  <defs
     id="defs8" />
  <sodipodi:namedview
     pagecolor="#ffffff"
     bordercolor="#666666"
     borderopacity="1"
     objecttolerance="10"
     gridtolerance="10"
     guidetolerance="10"
     inkscape:pageopacity="0"
     inkscape:pageshadow="2"
     inkscape:window-width="1366"
     inkscape:window-height="707"
     id="namedview6"
     showgrid="false"
     inkscape:zoom="20.85965"
     inkscape:cx="-2.618344"
     inkscape:cy="8.2884779"
     inkscape:window-x="0"
     inkscape:window-y="0"
     inkscape:window-maximized="1"
     inkscape:current-layer="svg2" />
  <g
     style="font-style:normal;font-weight:normal;font-size:16.33333397px;line-height:100%;font-family:Sans;text-align:center;letter-spacing:0px;word-spacing:0px;text-anchor:middle;fill:#828282;fill-opacity:1;stroke:none;stroke-width:1px;stroke-linecap:butt;stroke-linejoin:miter;stroke-opacity:1"
     id="text4133">
    <path
       d="m 14.22526,0.99999918 -12.450521,0 c -0.4283854,0 -0.77473959,0.34635422 -0.77473959,0.77473962 l 0,12.4505212 C 0.99999941,14.653646 1.3463536,15 1.774739,15 l 6.699219,0 0,-5.4231776 -1.8229167,0 0,-2.1145834 1.8229167,0 0,-1.5585938 c 0,-1.8046876 1.1119792,-2.7890626 2.725261,-2.7890626 0.765625,0 1.430989,0.054687 1.622395,0.082031 l 0,1.8867188 -1.111979,0.00911 c -0.884114,0 -1.048177,0.4101562 -1.048177,1.0208333 l 0,1.3489584 2.08724,0 -0.273438,2.1145834 -1.813802,0 0,5.4231776 3.563802,0 C 14.653646,15 15,14.653646 15,14.22526 L 15,1.7747388 C 15,1.3463534 14.653646,0.99999918 14.22526,0.99999918 Z"
       style="font-style:normal;font-variant:normal;font-weight:normal;font-stretch:normal;font-family:FontAwesome;-inkscape-font-specification:FontAwesome;fill:#828282;fill-opacity:1"
       id="path4135" />
  </g>
</svg>
