<svg viewBox="0 0 16 16" width="16px" height="16px"><path fill="#828282" d="M 9.3580736,8.0820307 C 9.3580736,10.078125 8.0182298,11.5 6.0039068,11.5 4.0625005,11.5 2.5039067,9.9322912 2.5039067,7.9999995 c 0,-1.9322918 1.5585938,-3.5000002 3.5000001,-3.5000002 0.8841146,0 1.6953126,0.3098959 2.342448,0.9114584 L 7.3984381,6.3320306 C 7.0247402,5.9674473 6.5143235,5.7942702 6.0039068,5.7942702 c -1.2122396,0 -2.1783855,1.0026042 -2.1783855,2.2057293 0,1.203125 0.9661459,2.2057295 2.1783855,2.2057295 0.920573,0 1.8320313,-0.5377607 1.9778647,-1.5039066 l -1.9778647,0 0,-1.203125 3.2994793,0 c 0.036458,0.1914062 0.054687,0.3828125 0.054687,0.5833333 z m 3.1445314,0.4192709 0,1.0026042 -1.002604,0 0,-1.0026042 -1.002604,0 0,-1.0026042 1.002604,0 0,-1.0026043 1.002604,0 0,1.0026043 0.99349,0 0,1.0026042 -0.99349,0 z m 2.497396,-0.5013021 c 0,-3.8645835 -3.135417,-7.00000032 -7.0000004,-7.00000032 -3.8645834,0 -7.0000002,3.13541682 -7.0000002,7.00000032 C 1.0000004,11.864583 4.1354172,15 8.0000006,15 11.864584,15 15.000001,11.864583 15.000001,7.9999995 Z"/></svg>
